<mxfile host="www.draw.io" modified="2019-11-09T17:22:22.099Z" agent="Mozilla/5.0 (Windows NT 10.0; Win64; x64) AppleWebKit/537.36 (KHTML, like Gecko) Chrome/78.0.3904.87 Safari/537.36" etag="wRA66AsAfWLyKJWKch-z" version="12.2.3" type="github" pages="1">
  <diagram id="L1zCXXWR_mN4_rLPZaBF" name="Page-1">
    <mxGraphModel dx="1463" dy="693" grid="1" gridSize="10" guides="1" tooltips="1" connect="1" arrows="1" fold="1" page="1" pageScale="1" pageWidth="850" pageHeight="1100" math="0" shadow="0">
      <root>
        <mxCell id="0"/>
        <mxCell id="1" parent="0"/>
        <mxCell id="n6fw2Yh-lV1S8r4dvBxx-1" value="&lt;font style=&quot;font-size: 18px&quot;&gt;قسمت جست و جوی مربیان&lt;/font&gt;" style="rounded=1;whiteSpace=wrap;html=1;" vertex="1" parent="1">
          <mxGeometry x="60" y="410" width="120" height="60" as="geometry"/>
        </mxCell>
        <mxCell id="n6fw2Yh-lV1S8r4dvBxx-2" value="&lt;font style=&quot;font-size: 18px&quot;&gt;اعمال فیلتر مورد نظر&lt;/font&gt;" style="rounded=1;whiteSpace=wrap;html=1;" vertex="1" parent="1">
          <mxGeometry x="260" y="410" width="120" height="60" as="geometry"/>
        </mxCell>
        <mxCell id="n6fw2Yh-lV1S8r4dvBxx-3" value="" style="endArrow=classic;html=1;exitX=1;exitY=0.5;exitDx=0;exitDy=0;entryX=0;entryY=0.5;entryDx=0;entryDy=0;" edge="1" parent="1" source="n6fw2Yh-lV1S8r4dvBxx-1" target="n6fw2Yh-lV1S8r4dvBxx-2">
          <mxGeometry width="50" height="50" relative="1" as="geometry">
            <mxPoint x="60" y="540" as="sourcePoint"/>
            <mxPoint x="110" y="490" as="targetPoint"/>
          </mxGeometry>
        </mxCell>
        <mxCell id="n6fw2Yh-lV1S8r4dvBxx-20" value="" style="edgeStyle=orthogonalEdgeStyle;rounded=0;orthogonalLoop=1;jettySize=auto;html=1;" edge="1" parent="1" source="n6fw2Yh-lV1S8r4dvBxx-4">
          <mxGeometry relative="1" as="geometry">
            <mxPoint x="520" y="550" as="targetPoint"/>
          </mxGeometry>
        </mxCell>
        <mxCell id="n6fw2Yh-lV1S8r4dvBxx-4" value="&lt;font style=&quot;font-size: 18px&quot;&gt;انتخاب مربی موردنظر&lt;/font&gt;" style="rounded=1;whiteSpace=wrap;html=1;" vertex="1" parent="1">
          <mxGeometry x="460" y="410" width="120" height="60" as="geometry"/>
        </mxCell>
        <mxCell id="n6fw2Yh-lV1S8r4dvBxx-5" value="" style="endArrow=classic;html=1;exitX=1;exitY=0.5;exitDx=0;exitDy=0;entryX=0;entryY=0.5;entryDx=0;entryDy=0;" edge="1" parent="1" source="n6fw2Yh-lV1S8r4dvBxx-2" target="n6fw2Yh-lV1S8r4dvBxx-4">
          <mxGeometry width="50" height="50" relative="1" as="geometry">
            <mxPoint x="60" y="540" as="sourcePoint"/>
            <mxPoint x="110" y="490" as="targetPoint"/>
          </mxGeometry>
        </mxCell>
        <mxCell id="n6fw2Yh-lV1S8r4dvBxx-6" value="" style="edgeStyle=orthogonalEdgeStyle;rounded=0;orthogonalLoop=1;jettySize=auto;html=1;" edge="1" parent="1" source="n6fw2Yh-lV1S8r4dvBxx-7" target="n6fw2Yh-lV1S8r4dvBxx-9">
          <mxGeometry relative="1" as="geometry"/>
        </mxCell>
        <mxCell id="n6fw2Yh-lV1S8r4dvBxx-7" value="&lt;font style=&quot;font-size: 18px&quot;&gt;مشاهده پروفایل مربی و ارسال درخواست&lt;/font&gt;" style="rounded=1;whiteSpace=wrap;html=1;" vertex="1" parent="1">
          <mxGeometry x="660" y="450" width="120" height="60" as="geometry"/>
        </mxCell>
        <mxCell id="n6fw2Yh-lV1S8r4dvBxx-9" value="&lt;span style=&quot;font-size: 24px&quot;&gt;بازگشت به خانه&lt;/span&gt;" style="rounded=1;whiteSpace=wrap;html=1;" vertex="1" parent="1">
          <mxGeometry x="660" y="310" width="120" height="60" as="geometry"/>
        </mxCell>
        <mxCell id="n6fw2Yh-lV1S8r4dvBxx-10" value="" style="edgeStyle=orthogonalEdgeStyle;rounded=0;orthogonalLoop=1;jettySize=auto;html=1;entryX=0.5;entryY=0;entryDx=0;entryDy=0;" edge="1" parent="1" source="n6fw2Yh-lV1S8r4dvBxx-11">
          <mxGeometry relative="1" as="geometry">
            <mxPoint x="120" y="410" as="targetPoint"/>
          </mxGeometry>
        </mxCell>
        <mxCell id="n6fw2Yh-lV1S8r4dvBxx-11" value="" style="ellipse;whiteSpace=wrap;html=1;aspect=fixed;fillColor=#647687;strokeColor=#314354;fontColor=#ffffff;" vertex="1" parent="1">
          <mxGeometry x="100" y="250" width="40" height="40" as="geometry"/>
        </mxCell>
        <mxCell id="n6fw2Yh-lV1S8r4dvBxx-13" value="" style="ellipse;whiteSpace=wrap;html=1;aspect=fixed;" vertex="1" parent="1">
          <mxGeometry x="695" y="192.5" width="50" height="50" as="geometry"/>
        </mxCell>
        <mxCell id="n6fw2Yh-lV1S8r4dvBxx-14" value="" style="ellipse;whiteSpace=wrap;html=1;aspect=fixed;fillColor=#647687;strokeColor=#314354;fontColor=#ffffff;" vertex="1" parent="1">
          <mxGeometry x="702.5" y="200" width="35" height="35" as="geometry"/>
        </mxCell>
        <mxCell id="n6fw2Yh-lV1S8r4dvBxx-18" value="" style="edgeStyle=orthogonalEdgeStyle;rounded=0;orthogonalLoop=1;jettySize=auto;html=1;exitX=0.5;exitY=0;exitDx=0;exitDy=0;entryX=0.5;entryY=1;entryDx=0;entryDy=0;" edge="1" parent="1" source="n6fw2Yh-lV1S8r4dvBxx-9" target="n6fw2Yh-lV1S8r4dvBxx-13">
          <mxGeometry relative="1" as="geometry">
            <mxPoint x="719.8571428571431" y="309.8571428571429" as="sourcePoint"/>
            <mxPoint x="720" y="250" as="targetPoint"/>
          </mxGeometry>
        </mxCell>
        <mxCell id="n6fw2Yh-lV1S8r4dvBxx-23" value="" style="edgeStyle=orthogonalEdgeStyle;rounded=0;orthogonalLoop=1;jettySize=auto;html=1;entryX=0.5;entryY=1;entryDx=0;entryDy=0;" edge="1" parent="1" source="n6fw2Yh-lV1S8r4dvBxx-21" target="n6fw2Yh-lV1S8r4dvBxx-7">
          <mxGeometry relative="1" as="geometry">
            <mxPoint x="640" y="590" as="targetPoint"/>
          </mxGeometry>
        </mxCell>
        <mxCell id="n6fw2Yh-lV1S8r4dvBxx-25" value="" style="edgeStyle=orthogonalEdgeStyle;rounded=0;orthogonalLoop=1;jettySize=auto;html=1;" edge="1" parent="1" source="n6fw2Yh-lV1S8r4dvBxx-21">
          <mxGeometry relative="1" as="geometry">
            <mxPoint x="520" y="710" as="targetPoint"/>
          </mxGeometry>
        </mxCell>
        <mxCell id="n6fw2Yh-lV1S8r4dvBxx-21" value="" style="rhombus;whiteSpace=wrap;html=1;" vertex="1" parent="1">
          <mxGeometry x="480" y="550" width="80" height="80" as="geometry"/>
        </mxCell>
        <mxCell id="n6fw2Yh-lV1S8r4dvBxx-26" value="&lt;font style=&quot;font-size: 18px&quot;&gt;&lt;b&gt;ویرایش پروفایل و تکمیل ان&lt;/b&gt;&lt;/font&gt;" style="rounded=1;whiteSpace=wrap;html=1;" vertex="1" parent="1">
          <mxGeometry x="460" y="710" width="120" height="60" as="geometry"/>
        </mxCell>
        <mxCell id="n6fw2Yh-lV1S8r4dvBxx-27" value="&lt;font size=&quot;1&quot;&gt;&lt;b&gt;عدم تکمیل بودن پروفایل&lt;/b&gt;&lt;/font&gt;" style="text;html=1;strokeColor=none;fillColor=none;align=center;verticalAlign=middle;whiteSpace=wrap;rounded=0;" vertex="1" parent="1">
          <mxGeometry x="530" y="650" width="120" height="30" as="geometry"/>
        </mxCell>
        <mxCell id="n6fw2Yh-lV1S8r4dvBxx-28" value="&lt;font size=&quot;1&quot;&gt;&lt;b&gt;تکمیل بودن پروفایل&lt;/b&gt;&lt;/font&gt;" style="text;html=1;strokeColor=none;fillColor=none;align=center;verticalAlign=middle;whiteSpace=wrap;rounded=0;" vertex="1" parent="1">
          <mxGeometry x="575" y="550" width="120" height="30" as="geometry"/>
        </mxCell>
      </root>
    </mxGraphModel>
  </diagram>
</mxfile>
